# xmcd
#
# Track frame offsets:
#	150
#	22557
#	46780
#	62040
#	85067
#	98065
#	113537
#	135762
#	155072
#	176780
#	198192
#	218467
#	231767
#
# Disc length: 3358
#
# Revision: 3
# Processed by: cddbd v1.5.1PL0 Copyright (c) Steve Scherf et al.
# Submitted via: ExactAudioCopy v0.95a5
# Normalized: r2:TDELIM( - )
#
DISCID=910d1c0d
DTITLE=Various Artist - Roadhouse Blues
DYEAR=1999
DGENRE=Blues
TTITLE0=Muddy Waters - 19 Years Old
TTITLE1=Otis Grand Featuring Guitar Shorty - Down Through The Years
TTITLE2=Lonnie Johnson - Another Night To Cry
TTITLE3=Roy Gaines - It's Midnight Baby
TTITLE4=Chicago Blues Band - She's Got A Thing Going On
TTITLE5=Chicago Blues Band - 29 Ways
TTITLE6=Louisiana Red - Sweet Little Girl
TTITLE7=Victoria Spivey - T.B. Blues
TTITLE8=Muddy Waters - Rosalie
TTITLE9=Eddie Cleanhead Vinson - Wee Baby Blues
TTITLE10=Otis Span - Good Looking Woman
TTITLE11=Cousin Joe - Sleepwalkin' Blues
TTITLE12=Johnny Shines - Wee Wee Hours
EXTD=
EXTT0=
EXTT1=
EXTT2=
EXTT3=
EXTT4=
EXTT5=
EXTT6=
EXTT7=
EXTT8=
EXTT9=
EXTT10=
EXTT11=
EXTT12=
PLAYORDER=
